<?xml version="1.0" encoding="utf-8"?><svg viewBox="0 0 54 54" xmlns="http://www.w3.org/2000/svg" xmlns:xlink="http://www.w3.org/1999/xlink"><style>:root>svg{display:none}:root>svg:target{display:block}</style><svg fill="none" viewBox="0 0 54 54" id="facebook" xmlns="http://www.w3.org/2000/svg"><circle cx="27" cy="27" r="27" fill="#fff" fill-opacity=".17"/><path d="M22.658 18.616v3.993h-2.925v4.882h2.925V42h6.01V27.492H32.7s.377-2.341.56-4.9h-4.57v-3.34c0-.498.655-1.17 1.303-1.17h3.274V13h-4.452c-6.305 0-6.157 4.887-6.157 5.616z" fill="#fff"/></svg><svg fill="none" viewBox="0 0 54 54" id="twitter" xmlns="http://www.w3.org/2000/svg"><circle cx="27" cy="27" r="27" fill="#fff" fill-opacity=".17"/><path d="M41 18.319c-1.03.457-2.136.766-3.298.905a5.768 5.768 0 0 0 2.525-3.176 11.583 11.583 0 0 1-3.65 1.395 5.727 5.727 0 0 0-4.192-1.815 5.744 5.744 0 0 0-5.596 7.051 16.307 16.307 0 0 1-11.838-6.001 5.701 5.701 0 0 0-.777 2.887 5.741 5.741 0 0 0 2.555 4.78 5.745 5.745 0 0 1-2.602-.721v.072a5.75 5.75 0 0 0 4.607 5.632 5.82 5.82 0 0 1-1.514.201c-.37 0-.73-.037-1.081-.107a5.747 5.747 0 0 0 5.364 3.99 11.524 11.524 0 0 1-7.133 2.455c-.464 0-.92-.028-1.37-.08a16.237 16.237 0 0 0 8.804 2.585c10.567 0 16.342-8.752 16.342-16.342l-.019-.744A11.472 11.472 0 0 0 41 18.32z" fill="#fff"/></svg><svg fill="none" viewBox="0 0 54 54" id="vk" xmlns="http://www.w3.org/2000/svg"><circle cx="27" cy="27" r="27" fill="#fff" fill-opacity=".17"/><g clip-path="url(#cclip0)"><path d="M43.815 35.55a2.394 2.394 0 0 0-.12-.228c-.606-1.094-1.767-2.436-3.48-4.028l-.036-.036-.018-.018-.018-.018h-.019c-.777-.742-1.27-1.24-1.476-1.495-.377-.486-.461-.978-.255-1.476.145-.377.693-1.172 1.64-2.387.498-.644.893-1.16 1.184-1.549 2.102-2.794 3.013-4.58 2.734-5.358l-.109-.181c-.073-.11-.261-.21-.564-.301-.304-.091-.693-.106-1.167-.046l-5.248.037c-.085-.03-.206-.028-.365.009l-.237.055-.091.045-.073.055a.81.81 0 0 0-.2.191c-.073.091-.133.198-.182.32a29.758 29.758 0 0 1-1.95 4.1c-.45.753-.862 1.406-1.24 1.958-.376.553-.692.96-.947 1.221-.255.261-.485.47-.692.629-.207.158-.365.225-.474.2-.11-.024-.212-.048-.31-.073a1.212 1.212 0 0 1-.41-.446 2.001 2.001 0 0 1-.21-.71 7.84 7.84 0 0 1-.063-.739c-.006-.206-.003-.498.01-.875.012-.377.017-.631.017-.765 0-.462.01-.963.027-1.503l.046-1.285c.013-.316.018-.65.018-1.002a4.21 4.21 0 0 0-.064-.83 2.832 2.832 0 0 0-.19-.583.982.982 0 0 0-.374-.437 2.104 2.104 0 0 0-.61-.246c-.644-.146-1.464-.225-2.46-.237-2.26-.024-3.712.122-4.356.438a2.454 2.454 0 0 0-.692.546c-.22.267-.25.413-.092.437.73.11 1.245.37 1.55.784l.109.219c.085.157.17.437.255.838.085.4.14.844.164 1.33.06.887.06 1.646 0 2.278-.061.632-.119 1.124-.173 1.476a2.957 2.957 0 0 1-.246.856c-.11.219-.183.353-.22.401a.315.315 0 0 1-.09.091c-.158.06-.322.092-.492.092-.17 0-.377-.085-.62-.256a4.373 4.373 0 0 1-.756-.701c-.261-.298-.556-.714-.884-1.249a21.773 21.773 0 0 1-1.02-1.895l-.292-.528c-.182-.34-.431-.836-.747-1.485a28.602 28.602 0 0 1-.838-1.887 1.202 1.202 0 0 0-.438-.583l-.09-.054c-.061-.05-.159-.1-.292-.155a1.936 1.936 0 0 0-.42-.119l-4.993.037c-.51 0-.856.115-1.038.346l-.073.11a.59.59 0 0 0-.055.29c0 .134.036.299.11.493a60.158 60.158 0 0 0 2.377 4.957c.857 1.59 1.601 2.873 2.233 3.844.631.972 1.275 1.89 1.931 2.752.656.863 1.09 1.415 1.303 1.658.213.244.38.425.501.547l.456.437c.292.292.72.641 1.285 1.048.565.407 1.19.808 1.877 1.203.686.395 1.485.717 2.396.966.911.249 1.798.349 2.66.3h2.096c.425-.036.747-.17.966-.4l.073-.092a1.21 1.21 0 0 0 .136-.337c.043-.151.064-.319.064-.5a6.001 6.001 0 0 1 .118-1.413c.091-.419.195-.735.31-.947.116-.213.247-.392.392-.538.146-.145.25-.234.31-.264.061-.03.11-.051.146-.064.291-.097.635-.003 1.03.283.395.285.765.638 1.111 1.057.347.42.763.89 1.249 1.412.486.523.91.91 1.275 1.166l.364.219c.244.146.56.28.949.401.388.121.728.152 1.02.091l4.665-.073c.461 0 .82-.076 1.075-.228.255-.151.407-.319.455-.5.05-.183.052-.39.01-.62a2.29 2.29 0 0 0-.128-.483z" fill="#fff"/></g><defs><clipPath id="cclip0"><path fill="#fff" transform="matrix(1 0 0 -1 9 45)" d="M0 0h35v35H0z"/></clipPath></defs></svg></svg>