<svg width="54" height="54" viewBox="0 0 54 54" fill="none" xmlns="http://www.w3.org/2000/svg">
<circle cx="27" cy="27" r="27" fill="white" fill-opacity="0.17"/>
<path d="M22.6583 18.6164C22.6583 19.3472 22.6583 22.6091 22.6583 22.6091H19.7332V27.4914H22.6583V41.9999H28.6673V27.4918H32.6996C32.6996 27.4918 33.0773 25.1507 33.2603 22.5911C32.7355 22.5911 28.69 22.5911 28.69 22.5911C28.69 22.5911 28.69 19.7507 28.69 19.2528C28.69 18.7539 29.3452 18.0828 29.9927 18.0828C30.6391 18.0828 32.0032 18.0828 33.2666 18.0828C33.2666 17.418 33.2666 15.1212 33.2666 13C31.58 13 29.6611 13 28.8152 13C22.5098 12.9997 22.6583 17.8868 22.6583 18.6164Z" fill="white"/>
</svg>
