<svg width="54" height="54" viewBox="0 0 54 54" fill="none" xmlns="http://www.w3.org/2000/svg">
<circle cx="27" cy="27" r="27" fill="white" fill-opacity="0.17"/>
<path d="M41 18.319C39.9694 18.7757 38.8636 19.0854 37.7018 19.2236C38.8881 18.5132 39.7962 17.3865 40.2266 16.048C39.1138 16.7058 37.8855 17.1835 36.5767 17.4425C35.5287 16.3244 34.038 15.6281 32.3845 15.6281C29.2124 15.6281 26.6403 18.2001 26.6403 21.3705C26.6403 21.8201 26.6911 22.2593 26.7891 22.6792C22.016 22.4395 17.7836 20.1527 14.9508 16.6778C14.4557 17.5247 14.174 18.5115 14.174 19.5648C14.174 21.5577 15.1888 23.3161 16.7285 24.3449C15.7872 24.3134 14.9018 24.0544 14.1268 23.624V23.6958C14.1268 26.4777 16.1074 28.7995 18.7336 29.328C18.2525 29.4574 17.7451 29.5292 17.2202 29.5292C16.8493 29.5292 16.4906 29.4924 16.1389 29.4224C16.8702 31.7058 18.9909 33.3662 21.5034 33.4117C19.5385 34.9514 17.061 35.8665 14.37 35.8665C13.9063 35.8665 13.4496 35.8385 13 35.7878C15.5423 37.4202 18.5605 38.372 21.8044 38.372C32.3706 38.372 38.1463 29.6202 38.1463 22.0301L38.127 21.2865C39.2555 20.4816 40.2318 19.4703 41 18.319Z" fill="white"/>
</svg>
