<svg width="54" height="54" viewBox="0 0 54 54" fill="none" xmlns="http://www.w3.org/2000/svg">
<circle cx="27" cy="27" r="27" fill="white" fill-opacity="0.17"/>
<g clip-path="url(#clip0)">
<path d="M43.8145 35.5497C43.7721 35.4583 43.7326 35.3826 43.6959 35.3219C43.0886 34.2282 41.9282 32.8858 40.2153 31.2942L40.1791 31.2578L40.1609 31.2399L40.1426 31.2216H40.1242C39.3468 30.4805 38.8545 29.9822 38.6484 29.7271C38.2712 29.2411 38.1866 28.7492 38.3928 28.2508C38.5385 27.8742 39.0856 27.0789 40.0329 25.8639C40.5312 25.2199 40.9258 24.7038 41.2173 24.315C43.3192 21.5206 44.2304 19.735 43.9509 18.9574L43.8423 18.7757C43.7693 18.6663 43.581 18.5662 43.2777 18.4749C42.9736 18.3838 42.585 18.3688 42.111 18.4295L36.8629 18.4657C36.7779 18.4356 36.6565 18.4384 36.4984 18.4749C36.3404 18.5114 36.2614 18.5298 36.2614 18.5298L36.17 18.5754L36.0975 18.6302C36.0368 18.6665 35.9699 18.7302 35.897 18.8214C35.8244 18.9122 35.7637 19.0188 35.7152 19.1403C35.1438 20.6103 34.4942 21.977 33.7651 23.2404C33.3156 23.9937 32.9027 24.6466 32.5257 25.1994C32.1492 25.752 31.8333 26.1592 31.5784 26.4202C31.3231 26.6814 31.0927 26.8907 30.8857 27.0488C30.6791 27.207 30.5214 27.2738 30.4122 27.2493C30.3027 27.2249 30.1997 27.2006 30.1021 27.1764C29.9321 27.067 29.7954 26.9182 29.6923 26.7299C29.5888 26.5416 29.5191 26.3046 29.4826 26.0191C29.4464 25.7335 29.4249 25.4877 29.4188 25.2811C29.4131 25.0748 29.4157 24.7829 29.4281 24.4063C29.4407 24.0295 29.4464 23.7746 29.4464 23.641C29.4464 23.1792 29.4554 22.6781 29.4734 22.1375C29.4918 21.5969 29.5067 21.1686 29.5191 20.853C29.5315 20.5371 29.5373 20.2029 29.5373 19.8506C29.5373 19.4983 29.5158 19.222 29.4734 19.0214C29.4316 18.8211 29.3673 18.6267 29.2826 18.4382C29.1974 18.2499 29.0727 18.1043 28.909 18.0009C28.7451 17.8976 28.5412 17.8157 28.2986 17.7548C27.6546 17.6091 26.8346 17.5302 25.8382 17.518C23.5787 17.4937 22.1268 17.6396 21.483 17.9555C21.2278 18.089 20.997 18.2713 20.7906 18.502C20.5718 18.7694 20.5413 18.9153 20.6992 18.9393C21.4283 19.0485 21.9444 19.3097 22.2481 19.7227L22.3576 19.9416C22.4427 20.0995 22.5277 20.3791 22.6128 20.7799C22.6978 21.1807 22.7526 21.6242 22.7767 22.1099C22.8374 22.9969 22.8374 23.7562 22.7767 24.3878C22.7159 25.0197 22.6585 25.5116 22.6036 25.8639C22.5488 26.2162 22.4668 26.5017 22.3576 26.7203C22.2481 26.939 22.1753 27.0727 22.1388 27.1212C22.1023 27.1697 22.0719 27.2003 22.0478 27.2123C21.8899 27.2728 21.7257 27.3036 21.5557 27.3036C21.3855 27.3036 21.1791 27.2185 20.9361 27.0483C20.6933 26.8781 20.4412 26.6444 20.18 26.3467C19.9187 26.049 19.6241 25.6329 19.296 25.0984C18.9681 24.5639 18.6279 23.9322 18.2756 23.2033L17.9841 22.6747C17.8019 22.3346 17.5529 21.8394 17.2371 21.1896C16.921 20.5395 16.6416 19.9107 16.3988 19.3033C16.3017 19.0482 16.1558 18.8539 15.9615 18.7203L15.8703 18.6655C15.8096 18.6169 15.7123 18.5654 15.5788 18.5105C15.4451 18.4557 15.3055 18.4164 15.1596 18.3922L10.1665 18.4285C9.65627 18.4285 9.31007 18.5441 9.12778 18.7749L9.05483 18.8841C9.01838 18.945 9 19.0421 9 19.1758C9 19.3095 9.03645 19.4735 9.1094 19.6677C9.8383 21.3808 10.631 23.033 11.4874 24.6245C12.3438 26.2159 13.0881 27.4979 13.7196 28.4692C14.3513 29.4412 14.9952 30.3586 15.6513 31.2209C16.3074 32.0835 16.7416 32.6363 16.9541 32.8792C17.1668 33.1225 17.3339 33.3044 17.4554 33.4259L17.9111 33.8632C18.2026 34.1548 18.6308 34.504 19.1957 34.9109C19.7608 35.3181 20.3863 35.7189 21.0727 36.1141C21.7593 36.5086 22.5579 36.8305 23.4692 37.0795C24.3803 37.3288 25.2671 37.4288 26.1297 37.3805H28.2254C28.6505 37.3438 28.9725 37.2102 29.1913 36.9795L29.2638 36.8882C29.3126 36.8157 29.3582 36.703 29.4004 36.5514C29.443 36.3996 29.4642 36.2323 29.4642 36.0503C29.4517 35.528 29.4915 35.0573 29.5824 34.6382C29.6732 34.2192 29.7767 33.9034 29.8925 33.6906C30.0082 33.4781 30.1388 33.2987 30.2842 33.1533C30.4298 33.0076 30.5336 32.9193 30.5945 32.889C30.655 32.8584 30.7033 32.8376 30.7398 32.8252C31.0313 32.7281 31.3745 32.8221 31.7697 33.1079C32.1646 33.3934 32.535 33.7459 32.8814 34.1649C33.2277 34.5842 33.6437 35.0547 34.1296 35.577C34.6157 36.0995 35.0408 36.4878 35.4051 36.7433L35.7695 36.962C36.0128 37.1079 36.3286 37.2416 36.7175 37.363C37.1056 37.4844 37.4457 37.5148 37.7377 37.4541L42.4026 37.3814C42.864 37.3814 43.223 37.305 43.4777 37.1534C43.7329 37.0015 43.8845 36.8342 43.9334 36.6523C43.9821 36.4701 43.9847 36.2634 43.9426 36.0324C43.8994 35.8019 43.8568 35.6407 43.8145 35.5497Z" fill="white"/>
</g>
<defs>
<clipPath id="clip0">
<rect width="35" height="35" fill="white" transform="matrix(1 0 0 -1 9 45)"/>
</clipPath>
</defs>
</svg>
